Coordinates
version=1
nRows=21
nColumns=12
inDegrees=yes

Units are S.I. units (second, meters, Newtons, ...)
Angles are in degrees

endheader
time	SC_y	SC_z	SC_x	AC_y	AC_z	AC_x	GH_y	GH_z	GH_yy	EL_x	PS_y
       0.0              -40.75          4.318          83.89          47.47          9.573          11.35         -25.34          15.52          70.64          60.37          81.85
    0.0344              -40.74          4.321          83.89          47.47          9.572          11.35         -25.31          15.52          70.65          60.38          81.86
    0.0688              -40.74          4.326          83.89          47.47           9.57          11.35         -25.29          15.53          70.67          60.39          81.87
    0.1032              -40.74           4.33          83.89          47.47          9.569          11.35         -25.26          15.53          70.68           60.4          81.88
    0.1376              -40.74          4.334          83.89          47.48          9.567          11.35         -25.23          15.53          70.69          60.41          81.89
     0.172              -40.74          4.339          83.88          47.48          9.565          11.35         -25.19          15.54           70.7          60.43           81.9
    0.2064              -40.74          4.345          83.88          47.48          9.563          11.34         -25.16          15.54          70.72          60.44          81.91
    0.2408              -40.74           4.35          83.88          47.48          9.561          11.34         -25.12          15.55          70.73          60.46          81.93
    0.2752              -40.74          4.356          83.88          47.49          9.559          11.34         -25.08          15.55          70.75          60.47          81.94
    0.3096              -40.74          4.363          83.88          47.49          9.557          11.34         -25.04          15.56          70.77          60.49          81.96
     0.344              -40.74           4.37          83.88          47.49          9.554          11.34         -24.99          15.56          70.79          60.51          81.97
    0.3784              -40.74          4.377          83.88           47.5          9.551          11.33         -24.94          15.57          70.81          60.52          81.99
    0.4128              -40.73          4.385          83.88           47.5          9.548          11.33         -24.89          15.57          70.83          60.55          82.01
    0.4472              -40.73          4.394          83.88          47.51          9.545          11.33         -24.83          15.58          70.85          60.57          82.03
    0.4816              -40.73          4.403          83.88          47.51          9.542          11.32         -24.77          15.59          70.88          60.59          82.05
     0.516              -40.73          4.413          83.88          47.52          9.538          11.32          -24.7           15.6           70.9          60.62          82.08
    0.5504              -40.73          4.424          83.88          47.52          9.534          11.32         -24.63          15.61          70.93          60.65           82.1
    0.5848              -40.73          4.436          83.88          47.53          9.529          11.31         -24.55          15.62          70.97          60.68          82.13
    0.6192              -40.72          4.449          83.88          47.54          9.525          11.31         -24.46          15.63           71.0          60.71          82.16
    0.6536              -40.72          4.464          83.88          47.54          9.519           11.3         -24.36          15.64          71.04          60.75           82.2
     0.688              -40.72           4.48          83.88          47.55          9.513           11.3         -24.26          15.65          71.08          60.79          82.24
